<svg
              width="11"
              height="10"
              viewBox="0 0 11 10"
              fill="none"
              xmlns="http://www.w3.org/2000/svg"
            >
              <path
                d="M3.99227 1.25H2.74227C2.52126 1.25 2.30929 1.3378 2.15301 1.49408C1.99673 1.65036 1.90894 1.86232 1.90894 2.08333V3.33333M9.40894 3.33333V2.08333C9.40894 1.86232 9.32114 1.65036 9.16486 1.49408C9.00858 1.3378 8.79662 1.25 8.5756 1.25H7.3256M7.3256 8.75H8.5756C8.79662 8.75 9.00858 8.6622 9.16486 8.50592C9.32114 8.34964 9.40894 8.13768 9.40894 7.91667V6.66667M1.90894 6.66667V7.91667C1.90894 8.13768 1.99673 8.34964 2.15301 8.50592C2.30929 8.6622 2.52126 8.75 2.74227 8.75H3.99227"
                stroke="#F9F9F9"
                stroke-width="2"
                stroke-linecap="round"
                stroke-linejoin="round"
              />
            </svg>