<svg width="61" height="60" viewBox="0 0 61 60" fill="none" xmlns="http://www.w3.org/2000/svg">
<path fill-rule="evenodd" clip-rule="evenodd" d="M4.97118 26.7251C20.5372 19.965 30.8998 15.4731 36.1033 13.2938C50.9133 7.11186 54.0265 6.04447 56.0278 6C56.4726 6 57.451 6.08895 58.1181 6.62264C58.6518 7.06739 58.7853 7.64556 58.8742 8.0903C58.9632 8.53505 59.0521 9.46901 58.9632 10.1806C58.1626 18.6307 54.6936 39.1335 52.9146 48.562C52.1586 52.5647 50.6909 53.899 49.2677 54.0324C46.1545 54.2992 43.7974 51.9866 40.8176 50.0297C36.1033 46.961 33.4793 45.0486 28.8984 42.0243C23.606 38.5553 27.0305 36.6429 30.0548 33.5297C30.8553 32.7291 44.509 20.2763 44.7758 19.1644C44.8203 19.031 44.8203 18.4973 44.509 18.2305C44.1976 17.9636 43.7529 18.0526 43.3971 18.1415C42.9079 18.2305 35.4362 23.2116 20.893 33.0405C18.7583 34.5081 16.8459 35.2197 15.1114 35.1752C13.199 35.1308 9.55205 34.1078 6.79464 33.2184C3.45905 32.151 0.790586 31.5728 1.01296 29.7049C1.14638 28.7264 2.48061 27.748 4.97118 26.7251Z" fill="#290E41"/>
</svg>
