<svg
              width="13"
              height="10"
              viewBox="0 0 13 10"
              fill="none"
              xmlns="http://www.w3.org/2000/svg"
            >
              <path
                d="M12.8392 3.85522H0.901855V4.67714H12.8392V3.85522Z"
                fill="#F9F9F9"
              />
              <path
                d="M3.13266 0C2.29117 0 1.58667 0.684932 1.58667 1.54599V3.32681H2.31074V1.54599H4.67865C4.67865 0.684932 3.99371 0 3.13266 0Z"
                fill="#F9F9F9"
              />
              <path
                d="M12.2129 7.24071V5.18591H10.1581H3.64146H1.58667V7.24071C1.58667 7.8865 1.88021 8.45401 2.33031 8.82583L2.07591 9.19766C1.91935 9.43249 1.97806 9.7456 2.19332 9.90216C2.42816 10.0587 2.74127 10 2.89782 9.78474L3.25008 9.27593C3.36749 9.2955 3.48491 9.31507 3.6219 9.31507H10.119C10.2364 9.31507 10.3342 9.2955 10.4321 9.2955L10.7843 9.80431C10.9409 10.0391 11.254 10.0979 11.4888 9.92173C11.7237 9.76517 11.7824 9.43249 11.6062 9.21722L11.3714 8.88454C11.8998 8.47358 12.2129 7.90607 12.2129 7.24071Z"
                fill="#F9F9F9"
              />
            </svg>