<svg width="25" height="20" viewBox="0 0 25 20" fill="none" xmlns="http://www.w3.org/2000/svg">
<path d="M24.2673 7.71036H0.392578V9.35419H24.2673V7.71036Z" fill="#290E41"/>
<path d="M4.85418 0C3.17121 0 1.76221 1.36986 1.76221 3.09198V6.65362H3.21035V3.09198H7.94616C7.94616 1.36986 6.5763 0 4.85418 0Z" fill="#290E41"/>
<path d="M23.0147 14.4814V10.3718H18.9051H5.8718H1.76221V14.4814C1.76221 15.773 2.34929 16.908 3.24949 17.6517L2.74068 18.3953C2.42757 18.865 2.54499 19.4912 2.97551 19.8043C3.44518 20.1174 4.0714 20 4.38452 19.5695L5.08902 18.5519C5.32385 18.591 5.55868 18.6301 5.83266 18.6301H18.8268C19.0616 18.6301 19.2573 18.591 19.453 18.591L20.1575 19.6086C20.4706 20.0783 21.0968 20.1957 21.5665 19.8435C22.0362 19.5303 22.1536 18.865 21.8013 18.4344L21.3317 17.7691C22.3884 16.9472 23.0147 15.8121 23.0147 14.4814Z" fill="#290E41"/>
</svg>
