<svg
              width="16"
              height="10"
              viewBox="0 0 16 10"
              fill="none"
              xmlns="http://www.w3.org/2000/svg"
            >
              <path
                d="M14.1205 4.03846V1.80769C14.1205 0.769231 13.3512 0 12.3128 0H3.42817C2.33201 0 1.42817 0.807692 1.42817 1.80769V4.23077C0.966628 4.55769 0.658936 5.07692 0.658936 5.65385V9.61539C0.658936 9.82692 0.832012 10 1.04355 10C1.25509 10 1.42817 9.82692 1.42817 9.61539V8.65385H14.3128V9.61539C14.3128 9.82692 14.4859 10 14.6974 10C14.9089 10 15.082 9.82692 15.082 9.61539V5.65385C15.082 4.92308 14.6974 4.32692 14.1205 4.03846ZM2.1974 1.80769C2.1974 1.17308 2.83201 0.769231 3.42817 0.769231H12.2936C12.9474 0.769231 13.3512 1.17308 13.3512 1.80769V3.84615H13.2743H13.1589V3.23077C13.1589 2.69231 12.7551 2.30769 12.1589 2.30769H8.50509C8.25509 2.30769 8.00509 2.36538 7.81278 2.5C7.63971 2.38462 7.42817 2.30769 7.17817 2.30769H3.50509C2.96663 2.30769 2.3897 2.63462 2.3897 3.23077V3.84615H2.1974V1.80769ZM7.3897 3.84615H3.15894V3.23077C3.15894 3.17308 3.31278 3.07692 3.50509 3.07692H7.17817C7.40894 3.07692 7.40894 3.17308 7.40894 3.23077V3.84615H7.3897ZM8.15894 3.23077C8.15894 3.17308 8.31278 3.07692 8.50509 3.07692H12.1782C12.4089 3.07692 12.4089 3.17308 12.4089 3.23077V3.84615H8.15894V3.23077Z"
                fill="#F9F9F9"
              />
            </svg>