<svg width="30" height="20" viewBox="0 0 30 20" fill="none" xmlns="http://www.w3.org/2000/svg">
<g clip-path="url(#clip0_1377_3433)">
<path d="M27.3825 8.07692V3.61538C27.3825 1.53846 25.8441 0 23.7672 0H5.99793C3.80563 0 1.99793 1.61538 1.99793 3.61538V8.46154C1.07486 9.11539 0.459473 10.1538 0.459473 11.3077V19.2308C0.459473 19.6538 0.805627 20 1.2287 20C1.65178 20 1.99793 19.6538 1.99793 19.2308V17.3077H27.7672V19.2308C27.7672 19.6538 28.1133 20 28.5364 20C28.9595 20 29.3056 19.6538 29.3056 19.2308V11.3077C29.3056 9.84615 28.5364 8.65385 27.3825 8.07692ZM3.5364 3.61538C3.5364 2.34615 4.80563 1.53846 5.99793 1.53846H23.7287C25.0364 1.53846 25.8441 2.34615 25.8441 3.61538V7.69231H25.6902H25.4595V6.46154C25.4595 5.38462 24.6518 4.61538 23.4595 4.61538H16.1518C15.6518 4.61538 15.1518 4.73077 14.7672 5C14.421 4.76923 13.9979 4.61538 13.4979 4.61538H6.15178C5.07486 4.61538 3.92101 5.26923 3.92101 6.46154V7.69231H3.5364V3.61538ZM13.921 7.69231H5.45947V6.46154C5.45947 6.34615 5.76717 6.15385 6.15178 6.15385H13.4979C13.9595 6.15385 13.9595 6.34615 13.9595 6.46154V7.69231H13.921ZM15.4595 6.46154C15.4595 6.34615 15.7672 6.15385 16.1518 6.15385H23.4979C23.9595 6.15385 23.9595 6.34615 23.9595 6.46154V7.69231H15.4595V6.46154Z" fill="#290E41"/>
</g>
<defs>
<clipPath id="clip0_1377_3433">
<rect width="28.8462" height="20" fill="white" transform="translate(0.459473)"/>
</clipPath>
</defs>
</svg>
