<svg width="12" height="10" viewBox="0 0 12 10" fill="none" xmlns="http://www.w3.org/2000/svg">
<path d="M10.1592 2.5H2.15918C1.60689 2.5 1.15918 2.94772 1.15918 3.5V8.5C1.15918 9.05228 1.60689 9.5 2.15918 9.5H10.1592C10.7115 9.5 11.1592 9.05228 11.1592 8.5V3.5C11.1592 2.94772 10.7115 2.5 10.1592 2.5Z" stroke="#290E41" stroke-linecap="round" stroke-linejoin="round"/>
<path d="M8.15918 9.5V1.5C8.15918 1.23478 8.05382 0.98043 7.86629 0.792893C7.67875 0.605357 7.4244 0.5 7.15918 0.5H5.15918C4.89396 0.5 4.63961 0.605357 4.45207 0.792893C4.26454 0.98043 4.15918 1.23478 4.15918 1.5V9.5" stroke="#290E41" stroke-linecap="round" stroke-linejoin="round"/>
</svg>
