<svg
                width="21"
                height="20"
                viewBox="0 0 21 20"
                fill="none"
                xmlns="http://www.w3.org/2000/svg"
              >
                <g clip-path="url(#clip0_669_2575)">
                  <path
                    d="M10.3298 11.6667C11.2502 11.6667 11.9964 10.9205 11.9964 10C11.9964 9.07954 11.2502 8.33334 10.3298 8.33334C9.40928 8.33334 8.66309 9.07954 8.66309 10C8.66309 10.9205 9.40928 11.6667 10.3298 11.6667Z"
                    stroke="#009621"
                    stroke-width="2"
                    stroke-linecap="round"
                    stroke-linejoin="round"
                  />
                  <path
                    d="M13.8629 6.46667C14.3278 6.93104 14.6966 7.48248 14.9482 8.08947C15.1999 8.69646 15.3294 9.34709 15.3294 10.0042C15.3294 10.6612 15.1999 11.3119 14.9482 11.9189C14.6966 12.5259 14.3278 13.0773 13.8629 13.5417M6.79627 13.5333C6.33139 13.069 5.96259 12.5175 5.71097 11.9105C5.45935 11.3035 5.32983 10.6529 5.32983 9.99584C5.32983 9.33876 5.45935 8.68813 5.71097 8.08114C5.96259 7.47415 6.33139 6.9227 6.79627 6.45834M16.2213 4.10834C17.7835 5.67107 18.6612 7.7903 18.6612 10C18.6612 12.2097 17.7835 14.3289 16.2213 15.8917M4.43793 15.8917C2.87567 14.3289 1.99805 12.2097 1.99805 10C1.99805 7.7903 2.87567 5.67107 4.43793 4.10834"
                    stroke="#009621"
                    stroke-width="2"
                    stroke-linecap="round"
                    stroke-linejoin="round"
                  />
                </g>
                <defs>
                  <clipPath id="clip0_669_2575">
                    <rect
                      width="20"
                      height="20"
                      fill="white"
                      transform="translate(0.330078)"
                    />
                  </clipPath>
                </defs>
              </svg>