<?xml version="1.0" standalone="no"?>
<!DOCTYPE svg PUBLIC "-//W3C//DTD SVG 20010904//EN"
 "http://www.w3.org/TR/2001/REC-SVG-20010904/DTD/svg10.dtd">
<svg version="1.0" xmlns="http://www.w3.org/2000/svg"
 width="500.000000pt" height="500.000000pt" viewBox="0 0 500.000000 500.000000"
 preserveAspectRatio="xMidYMid meet">

<g transform="translate(0.000000,500.000000) scale(0.100000,-0.100000)"
fill="#000000" stroke="none">
<path d="M2460 4441 c-25 -15 -126 -79 -224 -142 -99 -63 -236 -145 -305 -184
-68 -38 -127 -76 -129 -82 -2 -7 11 -21 28 -30 17 -10 113 -66 212 -125 99
-60 182 -108 184 -108 2 0 50 -29 106 -64 57 -34 121 -72 144 -84 l40 -21 40
24 c21 14 58 34 82 47 23 12 42 26 42 30 0 4 7 8 16 8 9 0 30 10 47 23 18 12
43 29 57 37 14 8 63 38 108 65 165 100 188 114 260 155 71 41 73 43 56 61 -9
10 -20 19 -24 19 -8 0 -569 335 -627 374 -47 33 -58 32 -113 -3z"/>
<path d="M3340 3895 c-41 -24 -81 -44 -87 -45 -7 0 -13 -4 -13 -10 0 -5 -4
-10 -9 -10 -5 0 -49 -23 -98 -51 -48 -29 -113 -65 -143 -81 -30 -16 -73 -40
-95 -53 -22 -13 -53 -31 -70 -40 -121 -64 -135 -82 -88 -112 15 -9 30 -21 33
-25 3 -4 28 -16 55 -28 27 -12 52 -25 55 -29 3 -5 41 -27 85 -50 44 -23 103
-56 132 -74 29 -18 118 -70 198 -116 l145 -83 133 77 c72 43 200 119 282 170
83 51 180 109 218 131 37 21 67 43 67 49 0 6 -19 21 -42 34 -24 12 -86 48
-138 80 -52 32 -117 70 -145 85 -97 55 -241 140 -307 182 -37 24 -73 44 -80
44 -7 0 -47 -20 -88 -45z"/>
<path d="M1575 3921 c-25 -24 -458 -282 -585 -348 -98 -52 -100 -55 -48 -90
55 -38 596 -377 625 -392 12 -6 30 -11 41 -11 10 0 99 50 198 111 98 61 247
152 329 201 83 50 158 99 168 109 16 18 16 19 -10 36 -16 10 -44 29 -63 44
-19 15 -108 66 -198 113 -90 47 -207 112 -260 145 -156 93 -177 102 -197 82z"/>
<path d="M2431 3370 c-46 -28 -86 -50 -88 -50 -2 0 -27 -15 -56 -33 -29 -18
-65 -40 -82 -48 -16 -9 -66 -36 -110 -61 -44 -25 -131 -74 -192 -109 -62 -35
-113 -68 -114 -74 -1 -5 34 -28 77 -51 68 -35 250 -140 519 -298 39 -23 86
-50 105 -60 l35 -18 90 54 c176 107 262 156 420 242 88 48 174 99 190 112 29
25 30 25 10 40 -11 8 -72 45 -135 81 -132 76 -311 181 -454 265 -54 32 -106
58 -115 58 -9 0 -54 -23 -100 -50z"/>
<path d="M748 3368 c-2 -7 -2 -200 1 -428 l6 -415 60 -37 c33 -20 71 -43 85
-51 14 -7 155 -91 313 -186 199 -120 292 -170 299 -163 12 12 25 792 15 834
-4 13 -21 31 -39 41 -18 9 -40 21 -48 27 -29 19 -265 157 -331 193 -36 19
-125 72 -198 116 -133 82 -155 91 -163 69z"/>
<path d="M4228 3350 c-27 -17 -51 -30 -54 -30 -3 0 -18 -8 -32 -19 -15 -10
-79 -48 -142 -83 -63 -36 -175 -99 -248 -141 -74 -43 -138 -77 -143 -77 -5 0
-9 -4 -9 -9 0 -5 -16 -15 -35 -22 l-36 -13 3 -418 c2 -281 7 -421 14 -428 7
-7 23 -4 55 14 226 122 642 353 672 372 l37 24 0 430 c0 487 7 456 -82 400z"/>
<path d="M1702 2398 l3 -442 50 -29 c173 -102 678 -378 683 -373 3 4 8 199 10
434 l4 427 -233 134 c-129 74 -254 146 -279 162 -87 53 -223 129 -233 129 -4
0 -6 -199 -5 -442z"/>
<path d="M3300 2814 c-152 -86 -287 -165 -370 -214 -87 -52 -253 -149 -290
-169 -13 -7 -15 -68 -18 -440 -2 -342 0 -431 10 -431 7 1 36 15 65 33 29 18
112 68 185 111 137 81 303 183 395 242 29 19 57 34 62 34 27 0 31 55 36 431 3
215 3 400 0 410 -8 25 -21 23 -75 -7z"/>
<path d="M745 2318 c-3 -13 -4 -207 -2 -432 3 -389 5 -409 23 -423 10 -8 80
-48 154 -90 74 -42 218 -123 320 -181 102 -57 202 -115 222 -128 41 -26 68
-31 68 -11 0 6 1 194 3 417 3 386 2 406 -16 427 -11 12 -32 27 -48 33 -16 7
-29 16 -29 21 0 5 -6 9 -12 9 -7 1 -38 16 -68 35 -30 18 -122 73 -205 121 -82
48 -201 118 -263 156 -63 37 -120 68 -128 68 -7 0 -16 -10 -19 -22z"/>
<path d="M4220 2302 c-36 -21 -105 -60 -155 -87 -49 -26 -172 -95 -272 -152
-100 -57 -196 -108 -213 -114 -17 -6 -29 -14 -26 -17 3 -3 2 -10 -3 -16 -5 -6
-12 -205 -16 -442 -7 -399 -6 -431 9 -437 16 -7 138 60 536 293 69 41 150 88
180 105 l55 31 3 204 c5 296 -7 670 -22 670 -6 0 -40 -17 -76 -38z"/>
<path d="M3337 1784 c-21 -7 -51 -22 -66 -33 -16 -11 -40 -25 -54 -30 -14 -6
-66 -35 -115 -65 -50 -31 -95 -56 -101 -56 -6 0 -11 -4 -11 -8 0 -5 -15 -16
-32 -25 -37 -20 -68 -37 -223 -129 l-110 -64 -3 -413 c-1 -227 1 -419 6 -426
8 -16 23 -8 572 302 19 11 62 35 95 53 102 57 94 18 95 480 0 223 -4 410 -8
416 -5 8 -17 8 -45 -2z"/>
<path d="M1683 1779 c-8 -8 -10 -120 -7 -403 3 -215 7 -401 10 -414 8 -38 17
-44 399 -269 307 -180 336 -196 344 -187 11 12 24 846 14 859 -8 11 -230 145
-239 145 -5 0 -180 103 -200 117 -25 19 -295 163 -304 163 -4 0 -11 -5 -17
-11z"/>
</g>
</svg>
