<svg
                      width="25"
                      height="27"
                      viewBox="0 0 30 32"
                      fill="none"
                      xmlns="http://www.w3.org/2000/svg"
                    >
                      <path
                        d="M29.2943 17.1444C28.8223 16.6774 28.1943 16.4458 27.5703 16.4458C26.9423 16.4458 26.3182 16.6774 25.8463 17.1444L22.9872 19.9773C22.6713 19.4833 22.1759 19.0973 21.5675 18.9352L14.8158 17.1444C14.2775 17.0016 13.7198 16.9746 13.1815 17.0556C12.6432 17.1367 12.1206 17.3258 11.6486 17.6191L7.43224 20.2514L7.0929 19.6647C6.66775 18.9352 5.69264 18.6805 4.95935 19.1012L1.75318 20.9306C1.016 21.3513 0.758567 22.3162 1.18372 23.0419L5.96177 31.2281C6.38692 31.9575 7.35813 32.2161 8.09532 31.7954L11.3015 29.9621C12.0387 29.5414 12.3 28.5765 11.8749 27.8509L11.8124 27.7429L13.6379 26.5232L20.3583 27.8316C21.2788 28.0092 22.1018 27.7583 22.7571 27.0944C24.9258 24.9022 27.0944 22.7176 29.2943 20.5678L29.2982 20.564C30.2382 19.6222 30.2382 18.0784 29.2943 17.1444ZM27.9135 19.1938C25.702 21.3552 23.5255 23.5475 21.3568 25.7397C21.3178 25.7783 20.7835 25.9443 20.7289 25.9327L13.6106 24.551C13.357 24.5008 13.0918 24.5548 12.8773 24.6976L10.8295 26.0678L8.41125 21.9226L12.69 19.2517C13.1737 18.9507 13.7588 18.8619 14.3126 19.0086L21.0643 20.7994C21.3412 20.8728 21.4817 21.1159 21.4076 21.3899C21.3334 21.664 21.0877 21.8029 20.8108 21.7296L16.5749 20.6064C16.0561 20.4675 15.5218 20.7724 15.3814 21.2896C15.2409 21.8029 15.5491 22.3317 16.0717 22.4706L20.3076 23.5938C21.2593 23.8447 22.2462 23.4896 22.8351 22.7717C22.9287 22.7292 23.0145 22.6713 23.0926 22.6019L27.2309 18.5068C27.3323 18.4065 27.4533 18.3563 27.5742 18.3563C27.6951 18.3563 27.816 18.4065 27.9174 18.5068C28.1163 18.7075 28.1163 18.9931 27.9135 19.1938Z"
                        fill="#F9F9F9"
                      />
                      <path
                        d="M19.5899 0L12.4014 5.53468V14.2304C12.4014 14.6241 12.5613 15.0216 12.8811 15.3381C13.201 15.6546 13.5988 15.8128 14.0006 15.8128H17.195H21.9887H25.1831C25.581 15.8128 25.9827 15.6546 26.3026 15.3381C26.6224 15.0216 26.7823 14.6279 26.7823 14.2304V5.53468L19.5899 0ZM22.0901 12.289C21.7273 12.6788 21.1813 12.9413 20.4441 13.0725V14.1223H18.5992V13.1149C18.1935 13.0802 17.8113 13.0146 17.4486 12.922C17.0858 12.8293 16.7894 12.7213 16.5514 12.59V10.336C16.9649 10.5715 17.4017 10.7451 17.862 10.8609C18.3223 10.9767 18.7474 11.0346 19.1374 11.0346C19.3598 11.0346 19.5158 11.0115 19.6133 10.969C19.7108 10.9265 19.7576 10.8571 19.7576 10.7606C19.7576 10.6294 19.6835 10.5174 19.5353 10.4287C19.3871 10.336 19.075 10.1855 18.5953 9.97322C17.8893 9.66831 17.3744 9.32481 17.0546 8.95043C16.7348 8.57605 16.5749 8.11675 16.5749 7.57641C16.5749 7.02834 16.7543 6.55361 17.117 6.15221C17.4798 5.75081 17.9712 5.46906 18.5992 5.31082V4.21469H20.4441V5.21047C21.0487 5.26064 21.6181 5.41503 22.1564 5.66976V7.84658C21.4933 7.48378 20.838 7.29852 20.1867 7.29852C19.664 7.29852 19.4027 7.41044 19.4027 7.63816C19.4027 7.74623 19.4651 7.83886 19.586 7.91219C19.7069 7.98553 19.9253 8.08202 20.2452 8.20938L20.6547 8.37535C21.1774 8.59534 21.5791 8.81148 21.86 9.02762C22.1408 9.24376 22.3397 9.48691 22.4567 9.76095C22.5737 10.035 22.6323 10.3785 22.6323 10.7953C22.6323 11.4013 22.4528 11.8992 22.0901 12.289Z"
                        fill="#F9F9F9"
                      />
                    </svg>