<svg
            width="34"
            height="31"
            viewBox="0 0 34 31"
            fill="none"
            xmlns="http://www.w3.org/2000/svg"
          >
            <path
              d="M15.3333 20.5H18.6666V15.5H23.6666V12.1667H18.6666V7.16667H15.3333V12.1667H10.3333V15.5H15.3333V20.5ZM10.3333 30.5V27.1667H3.66659C2.74992 27.1667 1.9652 26.8403 1.31242 26.1875C0.659641 25.5347 0.333252 24.75 0.333252 23.8333V3.83333C0.333252 2.91667 0.659641 2.13194 1.31242 1.47917C1.9652 0.826389 2.74992 0.5 3.66659 0.5H30.3333C31.2499 0.5 32.0346 0.826389 32.6874 1.47917C33.3402 2.13194 33.6666 2.91667 33.6666 3.83333V23.8333C33.6666 24.75 33.3402 25.5347 32.6874 26.1875C32.0346 26.8403 31.2499 27.1667 30.3333 27.1667H23.6666V30.5H10.3333ZM3.66659 23.8333H30.3333V3.83333H3.66659V23.8333Z"
              fill="#F9F9F9"
            />
          </svg>