<svg width="10" height="12" viewBox="0 0 10 12" fill="none" xmlns="http://www.w3.org/2000/svg">
<path d="M5.65918 1H1.65918C1.39396 1 1.13961 1.10536 0.952073 1.29289C0.764536 1.48043 0.65918 1.73478 0.65918 2V10C0.65918 10.2652 0.764536 10.5196 0.952073 10.7071C1.13961 10.8946 1.39396 11 1.65918 11H7.65918C7.9244 11 8.17875 10.8946 8.36629 10.7071C8.55382 10.5196 8.65918 10.2652 8.65918 10V4L5.65918 1Z" stroke="#290E41" stroke-linecap="round" stroke-linejoin="round"/>
<path d="M5.65918 1V4H8.65918" stroke="#290E41" stroke-linecap="round" stroke-linejoin="round"/>
<path d="M6.65918 6.5H2.65918" stroke="#290E41" stroke-linecap="round" stroke-linejoin="round"/>
<path d="M6.65918 8.5H2.65918" stroke="#290E41" stroke-linecap="round" stroke-linejoin="round"/>
<path d="M3.65918 4.5H3.15918H2.65918" stroke="#290E41" stroke-linecap="round" stroke-linejoin="round"/>
</svg>
