<svg width="19" height="21" viewBox="0 0 19 21" fill="none" xmlns="http://www.w3.org/2000/svg">
<path d="M9.90356 0.5L0.811523 7.50024V18.4985C0.811523 18.9965 1.01379 19.4993 1.41832 19.8996C1.82285 20.2999 2.32604 20.5 2.83417 20.5H6.87453H12.9375H16.9779C17.4811 20.5 17.9892 20.2999 18.3937 19.8996C18.7983 19.4993 19.0005 19.0013 19.0005 18.4985V7.50024L9.90356 0.5ZM13.0658 16.0431C12.607 16.5361 11.9163 16.8681 10.9839 17.034V18.3618H8.65051V17.0877C8.13744 17.0438 7.65398 16.9608 7.19519 16.8437C6.73639 16.7265 6.36146 16.5898 6.06053 16.4238V13.573C6.58346 13.8708 7.13599 14.0904 7.71812 14.2369C8.30024 14.3833 8.83797 14.4566 9.3313 14.4566C9.6125 14.4566 9.80983 14.4273 9.93316 14.3736C10.0565 14.3199 10.1157 14.232 10.1157 14.11C10.1157 13.944 10.022 13.8024 9.83449 13.6901C9.64703 13.573 9.25237 13.3826 8.64557 13.1141C7.75265 12.7285 7.10146 12.294 6.69693 11.8205C6.2924 11.347 6.09013 10.766 6.09013 10.0826C6.09013 9.38943 6.31706 8.78899 6.77586 8.2813C7.23465 7.77361 7.85625 7.41726 8.65051 7.21711V5.83073H10.9839V7.09019C11.7486 7.15365 12.4689 7.34891 13.1497 7.6711V10.4243C12.311 9.96546 11.4822 9.73114 10.6584 9.73114C9.99729 9.73114 9.66676 9.87271 9.66676 10.1607C9.66676 10.2974 9.7457 10.4146 9.89863 10.5073C10.0516 10.6001 10.3278 10.7221 10.7324 10.8832L11.2503 11.0931C11.9114 11.3714 12.4195 11.6447 12.7747 11.9181C13.1299 12.1915 13.3815 12.499 13.5295 12.8456C13.6775 13.1922 13.7515 13.6267 13.7515 14.1539C13.7515 14.9203 13.5246 15.55 13.0658 16.0431Z" fill="#009621"/>
</svg>
