<svg width="20" height="20" viewBox="0 0 20 20" fill="none" xmlns="http://www.w3.org/2000/svg">
<path d="M16.8281 3.33333C16.4948 3.33333 16.1615 3.33333 15.8281 3.33333C15.8281 3 15.4948 2.33333 15.1615 2C14.8281 1.66667 14.3281 1.33333 13.3281 1.33333C12.9948 1.33333 12.6615 1.33333 12.3281 1.5C12.1615 1.16667 11.9948 1 11.8281 0.666667C11.4948 0.333333 10.9948 0 9.99479 0C8.66146 0 7.99479 0.833333 7.66146 1.66667C7.49479 1.66667 7.16146 1.5 6.82813 1.5C5.99479 1.5 5.49479 1.83333 4.99479 2.16667C4.16146 3.16667 4.16146 4.5 4.16146 4.66667V5.33333C3.16146 5.33333 2.32812 5.66667 1.82812 6.16667C0.828125 7.33333 0.828125 8.83333 0.828125 10.8333C0.828125 11.1667 0.828125 11.6667 0.828125 12C0.828125 14.3333 1.99479 15.5 3.16146 16.6667L3.66146 17.3333C5.82812 19.3333 7.82813 20 12.1615 20C16.9948 20 19.1615 17.3333 19.1615 11.5V7.33333C19.1615 6.16667 18.8281 3.83333 16.8281 3.33333ZM13.3281 3C13.9948 3 14.1615 3.66667 14.1615 4V5.33333C14.1615 5.83333 14.4948 6.16667 14.8281 6.16667C15.3281 6.16667 15.6615 6 15.6615 5.5C15.6615 5.5 15.6615 4.83333 16.3281 5C17.3281 5.33333 17.4948 6.83333 17.4948 7.16667V11.5C17.4948 17.1667 15.3281 18.3333 12.1615 18.3333C8.16146 18.3333 6.66146 17.8333 4.99479 16.1667C4.82812 16 4.66146 15.8333 4.32812 15.5C3.16146 14.3333 2.49479 13.6667 2.49479 12C2.49479 11.6667 2.49479 11.5 2.49479 11C2.49479 9.33333 2.49479 8 2.99479 7.5C3.16146 7.16667 3.66146 7 4.16146 7V8.33333L3.66146 10.3333C3.66146 10.5 3.66146 10.5 3.82813 10.5C3.99479 10.6667 4.16146 10.5 4.16146 10.5L5.82813 8.5V8.33333V5C5.82813 4.83333 5.82812 4 6.16146 3.66667C6.32812 3.5 6.49479 3.33333 6.82813 3.33333C7.32813 3.33333 7.49479 3.66667 7.49479 4V4.66667C7.49479 5 7.82813 5.5 8.32813 5.5C8.82812 5.5 9.16146 5 9.16146 4.66667V2.5C9.16146 2.33333 9.16146 1.66667 9.99479 1.66667C10.4948 1.66667 10.8281 2 10.8281 2.5V4.5C10.8281 5 11.1615 5.5 11.6615 5.5C12.1615 5.5 12.4948 5 12.4948 4.66667V3.83333C12.4948 3.33333 12.8281 3 13.3281 3Z" fill="black"/>
</svg>
