<svg width="21" height="23" viewBox="0 0 21 23" fill="none" xmlns="http://www.w3.org/2000/svg">
<path d="M16.5 7.5C16.5 5.9087 15.8679 4.38258 14.7426 3.25736C13.6174 2.13214 12.0913 1.5 10.5 1.5C8.9087 1.5 7.38258 2.13214 6.25736 3.25736C5.13214 4.38258 4.5 5.9087 4.5 7.5C4.5 14.5 1.5 16.5 1.5 16.5H19.5C19.5 16.5 16.5 14.5 16.5 7.5Z" stroke="#290E41" stroke-width="2" stroke-linecap="round" stroke-linejoin="round"/>
<path d="M12.2295 20.5C12.0537 20.8031 11.8014 21.0547 11.4978 21.2295C11.1941 21.4044 10.8499 21.4965 10.4995 21.4965C10.1492 21.4965 9.80492 21.4044 9.5013 21.2295C9.19769 21.0547 8.94534 20.8031 8.76953 20.5" stroke="#290E41" stroke-width="2" stroke-linecap="round" stroke-linejoin="round"/>
</svg>
