<svg
  width="21"
  height="18"
  viewBox="0 0 21 18"
  fill="none"
  xmlns="http://www.w3.org/2000/svg"
>
  <path
    d="M9.23432 2.21665L2.17599 14C2.03046 14.252 1.95346 14.5377 1.95264 14.8288C1.95183 15.1198 2.02723 15.4059 2.17134 15.6588C2.31545 15.9116 2.52326 16.1223 2.77408 16.2699C3.02489 16.4174 3.30999 16.4968 3.60099 16.5H17.7177C18.0087 16.4968 18.2937 16.4174 18.5446 16.2699C18.7954 16.1223 19.0032 15.9116 19.1473 15.6588C19.2914 15.4059 19.3668 15.1198 19.366 14.8288C19.3652 14.5377 19.2882 14.252 19.1427 14L12.0843 2.21665C11.9358 1.97174 11.7266 1.76925 11.477 1.62872C11.2274 1.48819 10.9458 1.41437 10.6593 1.41437C10.3729 1.41437 10.0913 1.48819 9.84166 1.62872C9.59205 1.76925 9.38288 1.97174 9.23432 2.21665Z"
    stroke="#1a54da"
    stroke-width="2"
    stroke-linecap="round"
    stroke-linejoin="round"
  />
  <path
    d="M10.6592 6.5V9.83333"
    stroke="#1a54da"
    stroke-width="2"
    stroke-linecap="round"
    stroke-linejoin="round"
  />
  <path
    d="M10.6592 13.1667H10.6675"
    stroke="#1a54da"
    stroke-width="2"
    stroke-linecap="round"
    stroke-linejoin="round"
  />
</svg>
