 <svg
          width="20"
          height="18"
          viewBox="0 0 20 18"
          fill="none"
          xmlns="http://www.w3.org/2000/svg"
        >
          <path
            d="M8.57514 2.21665L1.51681 14C1.37128 14.252 1.29428 14.5377 1.29346 14.8288C1.29265 15.1198 1.36805 15.4059 1.51216 15.6588C1.65627 15.9116 1.86408 16.1223 2.1149 16.2699C2.36571 16.4174 2.65081 16.4968 2.94181 16.5H17.0585C17.3495 16.4968 17.6346 16.4174 17.8854 16.2699C18.1362 16.1223 18.344 15.9116 18.4881 15.6588C18.6322 15.4059 18.7076 15.1198 18.7068 14.8288C18.706 14.5377 18.629 14.252 18.4835 14L11.4251 2.21665C11.2766 1.97174 11.0674 1.76925 10.8178 1.62872C10.5682 1.48819 10.2866 1.41437 10.0001 1.41437C9.71369 1.41437 9.43208 1.48819 9.18248 1.62872C8.93287 1.76925 8.7237 1.97174 8.57514 2.21665Z"
            stroke="#E91919"
            stroke-width="2"
            stroke-linecap="round"
            stroke-linejoin="round"
          />
          <path
            d="M10 6.5V9.83333"
            stroke="#E91919"
            stroke-width="2"
            stroke-linecap="round"
            stroke-linejoin="round"
          />
          <path
            d="M10 13.1667H10.0083"
            stroke="#E91919"
            stroke-width="2"
            stroke-linecap="round"
            stroke-linejoin="round"
          />
        </svg>