<svg width="88" height="64" viewBox="0 0 88 64" fill="none" xmlns="http://www.w3.org/2000/svg">
<path d="M9.79004 0.75C4.65088 0.75 0.415039 4.98584 0.415039 10.125V53.875C0.415039 59.0142 4.65088 63.25 9.79004 63.25H78.54C83.6792 63.25 87.915 59.0142 87.915 53.875V10.125C87.915 4.98584 83.6792 0.75 78.54 0.75H9.79004ZM9.79004 7H78.54C80.3101 7 81.665 8.35498 81.665 10.125V53.875C81.665 55.645 80.3101 57 78.54 57H9.79004C8.02002 57 6.66504 55.645 6.66504 53.875V10.125C6.66504 8.35498 8.02002 7 9.79004 7ZM28.54 13.25C21.6675 13.25 16.04 18.8774 16.04 25.75C16.04 29.229 17.5293 32.3662 19.8486 34.6367C15.686 37.4565 12.915 42.2539 12.915 47.625H19.165C19.165 42.4126 23.3276 38.25 28.54 38.25C33.7524 38.25 37.915 42.4126 37.915 47.625H44.165C44.165 42.2539 41.394 37.4565 37.2314 34.6367C39.5508 32.3662 41.04 29.229 41.04 25.75C41.04 18.8774 35.4126 13.25 28.54 13.25ZM50.415 16.375V22.625H75.415V16.375H50.415ZM28.54 19.5C32.0313 19.5 34.79 22.2588 34.79 25.75C34.79 29.2412 32.0313 32 28.54 32C25.0488 32 22.29 29.2412 22.29 25.75C22.29 22.2588 25.0488 19.5 28.54 19.5ZM50.415 28.875V35.125H75.415V28.875H50.415ZM50.415 41.375V47.625H66.04V41.375H50.415Z" fill="black"/>
</svg>
