 <svg
                    width="12"
                    height="16"
                    viewBox="0 0 12 16"
                    fill="none"
                    xmlns="http://www.w3.org/2000/svg"
                  >
                    <path
                      d="M12 6.66667C12 11.3333 6 15.3333 6 15.3333C6 15.3333 0 11.3333 0 6.66667C2.37122e-08 5.07537 0.632141 3.54925 1.75736 2.42403C2.88258 1.29881 4.4087 0.666672 6 0.666672C7.5913 0.666672 9.11742 1.29881 10.2426 2.42403C11.3679 3.54925 12 5.07537 12 6.66667Z"
                      fill="#290E41"
                    />
                    <path
                      d="M6 8.66667C7.10457 8.66667 8 7.77124 8 6.66667C8 5.5621 7.10457 4.66667 6 4.66667C4.89543 4.66667 4 5.5621 4 6.66667C4 7.77124 4.89543 8.66667 6 8.66667Z"
                      fill="#F9F9F9"
                    />
                  </svg>