<svg width="13" height="16" viewBox="0 0 13 16" fill="none" xmlns="http://www.w3.org/2000/svg">
<path d="M12.6592 6.66666C12.6592 11.3333 6.65918 15.3333 6.65918 15.3333C6.65918 15.3333 0.65918 11.3333 0.65918 6.66666C0.65918 5.07537 1.29132 3.54924 2.41654 2.42402C3.54176 1.29881 5.06788 0.666664 6.65918 0.666664C8.25048 0.666664 9.7766 1.29881 10.9018 2.42402C12.027 3.54924 12.6592 5.07537 12.6592 6.66666Z" fill="#F9F9F9"/>
<path d="M6.65918 8.66666C7.76375 8.66666 8.65918 7.77123 8.65918 6.66666C8.65918 5.56209 7.76375 4.66666 6.65918 4.66666C5.55461 4.66666 4.65918 5.56209 4.65918 6.66666C4.65918 7.77123 5.55461 8.66666 6.65918 8.66666Z" fill="#290E41"/>
</svg>
