  <svg
                width="23"
                height="20"
                viewBox="0 0 23 20"
                fill="none"
                xmlns="http://www.w3.org/2000/svg"
              >
                <path
                  d="M0.143555 4.03632C0.16223 3.95418 0.17678 3.87088 0.200267 3.79011C0.301663 3.44193 0.512016 3.183 0.828805 3.00243C1.30783 2.72953 1.78158 2.44745 2.25728 2.16904C3.41468 1.4917 4.5715 0.813324 5.73004 0.138041C5.88036 0.0503944 6.04065 -0.00838056 6.22304 0.00124342C6.40968 0.0110965 6.59735 0.00754483 6.78421 0.00181628C6.88905 -0.00139172 6.98597 0.0187728 7.07545 0.0683821C7.26725 0.17459 7.45778 0.283203 7.64693 0.394108C9.06498 1.22647 10.4825 2.05997 11.9004 2.89256C12.2263 3.08401 12.4703 3.34695 12.5909 3.70854C12.6328 3.83434 12.661 3.97068 12.663 4.10266C12.6731 4.78952 12.6725 5.47648 12.6765 6.16345C12.6767 6.19507 12.669 6.2149 12.6395 6.23197C11.9126 6.65164 11.1865 7.07246 10.4601 7.49294C10.4458 7.5013 10.4307 7.50829 10.4081 7.52009C10.4081 7.49225 10.4081 7.47208 10.4081 7.45192C10.4081 6.81995 10.411 6.18786 10.4068 5.55588C10.4047 5.21251 10.2951 4.90374 10.0803 4.63324C9.93824 4.45451 9.75126 4.33478 9.55913 4.21907C8.75507 3.73477 7.95307 3.24716 7.14821 2.76413C7.00579 2.67866 6.8486 2.62458 6.6819 2.60384C6.58669 2.59204 6.49137 2.57256 6.39593 2.5713C6.13872 2.56798 5.89698 2.62973 5.6731 2.76012C4.82757 3.25266 3.97905 3.74027 3.13627 4.23751C2.78843 4.44271 2.55574 4.74667 2.45755 5.14262C2.43085 5.25009 2.41401 5.36294 2.41367 5.47351C2.41057 6.51794 2.40553 7.56248 2.41653 8.6068C2.41928 8.8639 2.52824 9.10129 2.67615 9.31588C2.82074 9.52566 3.01975 9.66876 3.23457 9.79776C4.04402 10.284 4.85037 10.7755 5.66016 11.2612C5.83362 11.3652 6.02644 11.4227 6.22831 11.4487C6.59448 11.4959 6.92468 11.4071 7.23952 11.2163C8.28853 10.5803 9.33926 9.94728 10.3953 9.32298C10.8532 9.05225 11.3233 8.80191 11.7914 8.54894C12.5603 8.13339 13.3103 7.68542 14.0629 7.24191C14.7072 6.86234 15.35 6.48024 15.9963 6.1041C16.1766 5.99916 16.3766 5.94795 16.5857 5.92388C16.7368 5.90647 16.8846 5.91609 17.0319 5.93924C17.1891 5.96387 17.3353 6.02402 17.4732 6.1041C19.0024 6.99203 20.5316 7.87984 22.0612 8.76697C22.2414 8.87146 22.4226 8.97308 22.5701 9.12409C22.7511 9.30946 22.8849 9.52337 22.9453 9.77554C22.9759 9.90329 22.9965 10.0368 22.9967 10.1677C22.9999 12.0466 23.0029 13.9255 22.9965 15.8044C22.9945 16.3599 22.75 16.7963 22.2653 17.0797C21.2015 17.7016 20.1344 18.3178 19.0685 18.9363C18.5373 19.2446 18.0068 19.5541 17.474 19.8599C17.3194 19.9487 17.1561 20.0093 16.9698 19.9978C16.8044 19.9876 16.6371 19.9867 16.4718 19.9981C16.3004 20.0101 16.1529 19.955 16.011 19.8727C14.9679 19.2681 13.9253 18.6628 12.8826 18.0578C12.3233 17.7332 11.7623 17.4115 11.2054 17.0828C10.8666 16.8828 10.6363 16.5929 10.5221 16.2129C10.4826 16.0813 10.4658 15.9484 10.466 15.8116C10.4668 15.1739 10.4668 14.5361 10.4653 13.8984C10.4653 13.8601 10.4783 13.8408 10.5097 13.8226C11.2364 13.4029 11.9627 12.982 12.6892 12.5617C12.7018 12.5543 12.7156 12.549 12.7345 12.54C12.7345 12.5629 12.7345 12.5796 12.7345 12.5963C12.7347 13.2551 12.73 13.9138 12.738 14.5724C12.7403 14.7627 12.8096 14.9434 12.8975 15.1135C13.0337 15.377 13.2351 15.5752 13.4919 15.7236C14.3244 16.2046 15.154 16.6904 15.9862 17.1716C16.171 17.2783 16.3741 17.3351 16.5865 17.3607C16.9467 17.4044 17.2674 17.3033 17.5737 17.1186C18.3513 16.6498 19.1332 16.188 19.9133 15.7233C20.2328 15.533 20.4663 15.2693 20.5897 14.9157C20.6468 14.7521 20.6716 14.5815 20.6717 14.4081C20.6722 13.4496 20.6729 12.491 20.6717 11.5325C20.671 10.9277 20.4163 10.4706 19.8861 10.166C19.0641 9.69362 18.2472 9.21253 17.426 8.73855C17.2318 8.62639 17.0185 8.57105 16.7941 8.54791C16.454 8.51285 16.1504 8.60107 15.8585 8.77144C14.3197 9.66945 12.7782 10.5629 11.2379 11.458C9.88726 12.2431 8.53669 13.0282 7.18613 13.8136C7.00133 13.9211 6.80128 13.9834 6.59105 14.0139C6.22029 14.0676 5.88895 13.966 5.56884 13.779C4.01068 12.8687 2.44781 11.9666 0.888382 11.0587C0.544668 10.8587 0.309568 10.5667 0.199465 10.1807C0.17678 10.1009 0.162001 10.0183 0.143555 9.93674C0.143555 7.9699 0.143555 6.00317 0.143555 4.03632Z"
                  fill="#F9F9F9"
                />
              </svg>