<svg width="23" height="17" viewBox="0 0 23 17" fill="none" xmlns="http://www.w3.org/2000/svg">
<path d="M11.5 10.5C12.6046 10.5 13.5 9.60457 13.5 8.5C13.5 7.39543 12.6046 6.5 11.5 6.5C10.3954 6.5 9.5 7.39543 9.5 8.5C9.5 9.60457 10.3954 10.5 11.5 10.5Z" stroke="#290E41" stroke-width="2" stroke-linecap="round" stroke-linejoin="round"/>
<path d="M15.7398 4.25999C16.2977 4.81723 16.7402 5.47896 17.0422 6.20735C17.3441 6.93574 17.4995 7.7165 17.4995 8.50499C17.4995 9.29349 17.3441 10.0742 17.0422 10.8026C16.7402 11.531 16.2977 12.1928 15.7398 12.75M7.25982 12.74C6.70196 12.1828 6.25941 11.521 5.95746 10.7926C5.65551 10.0642 5.5001 9.28349 5.5001 8.49499C5.5001 7.7065 5.65551 6.92574 5.95746 6.19735C6.25941 5.46896 6.70196 4.80723 7.25982 4.24999M18.5698 1.42999C20.4445 3.30527 21.4977 5.84835 21.4977 8.49999C21.4977 11.1516 20.4445 13.6947 18.5698 15.57M4.42982 15.57C2.55511 13.6947 1.50195 11.1516 1.50195 8.49999C1.50195 5.84835 2.55511 3.30527 4.42982 1.42999" stroke="#290E41" stroke-width="2" stroke-linecap="round" stroke-linejoin="round"/>
</svg>
