<svg width="23" height="25" viewBox="0 0 23 25" fill="none" xmlns="http://www.w3.org/2000/svg">
<path d="M22.1836 13.3583C21.8296 13.008 21.3586 12.8343 20.8906 12.8343C20.4196 12.8343 19.9516 13.008 19.5976 13.3583L17.4533 15.483C17.2164 15.1125 16.8449 14.823 16.3885 14.7014L11.3247 13.3583C10.921 13.2512 10.5027 13.2309 10.099 13.2917C9.69532 13.3525 9.30333 13.4943 8.94936 13.7143L5.78707 15.6885L5.53257 15.2485C5.2137 14.7014 4.48237 14.5104 3.93241 14.8259L1.52778 16.198C0.974889 16.5135 0.781816 17.2372 1.10068 17.7814L4.68422 23.9211C5.00308 24.4682 5.73149 24.6621 6.28438 24.3466L8.68901 22.9716C9.2419 22.6561 9.43789 21.9324 9.11903 21.3882L9.07223 21.3071L10.4413 20.3924L15.4816 21.3737C16.172 21.5069 16.7893 21.3187 17.2807 20.8208C18.9072 19.1766 20.5337 17.5382 22.1836 15.9259L22.1865 15.923C22.8915 15.2167 22.8915 14.0588 22.1836 13.3583ZM21.148 14.8954C19.4894 16.5164 17.857 18.1606 16.2305 19.8048C16.2013 19.8337 15.8005 19.9582 15.7596 19.9495L10.4208 18.9132C10.2307 18.8756 10.0317 18.9161 9.87084 19.0232L8.33504 20.0508L6.52133 16.9419L9.73043 14.9388C10.0932 14.713 10.532 14.6464 10.9474 14.7564L16.0111 16.0996C16.2188 16.1546 16.3241 16.3369 16.2686 16.5425C16.213 16.748 16.0287 16.8522 15.821 16.7972L12.6441 15.9548C12.255 15.8506 11.8542 16.0793 11.7489 16.4672C11.6436 16.8522 11.8747 17.2488 12.2667 17.353L15.4436 18.1953C16.1574 18.3835 16.8975 18.1172 17.3392 17.5788C17.4094 17.5469 17.4738 17.5035 17.5323 17.4514L20.6361 14.3801C20.7121 14.3048 20.8028 14.2672 20.8935 14.2672C20.9842 14.2672 21.0749 14.3048 21.1509 14.3801C21.3001 14.5306 21.3001 14.7448 21.148 14.8954Z" fill="#290E41"/>
<path d="M14.9056 0.5L9.51416 4.65101V11.1728C9.51416 11.468 9.6341 11.7662 9.87398 12.0036C10.1139 12.2409 10.4122 12.3596 10.7135 12.3596H13.1094H16.7046H19.1005C19.3989 12.3596 19.7002 12.2409 19.9401 12.0036C20.1799 11.7662 20.2999 11.4709 20.2999 11.1728V4.65101L14.9056 0.5ZM16.7807 9.71674C16.5086 10.0091 16.0991 10.2059 15.5462 10.3044V11.0917H14.1625V10.3362C13.8583 10.3102 13.5716 10.2609 13.2995 10.1915C13.0275 10.122 12.8052 10.0409 12.6267 9.94253V8.25202C12.9368 8.4286 13.2644 8.55886 13.6096 8.6457C13.9548 8.73254 14.2737 8.77596 14.5662 8.77596C14.733 8.77596 14.85 8.75859 14.9231 8.72675C14.9962 8.69491 15.0313 8.64281 15.0313 8.57044C15.0313 8.47202 14.9758 8.38807 14.8646 8.32149C14.7534 8.25202 14.5194 8.13913 14.1596 7.97992C13.6301 7.75124 13.244 7.49361 13.0041 7.21282C12.7642 6.93203 12.6443 6.58756 12.6443 6.18231C12.6443 5.77126 12.7788 5.41521 13.0509 5.11416C13.323 4.81311 13.6915 4.6018 14.1625 4.48311V3.66102H15.5462V4.40785C15.9996 4.44548 16.4267 4.56127 16.8304 4.75232V6.38494C16.3331 6.11283 15.8417 5.97389 15.3531 5.97389C14.9611 5.97389 14.7651 6.05783 14.7651 6.22862C14.7651 6.30967 14.8119 6.37915 14.9026 6.43414C14.9933 6.48914 15.1571 6.56151 15.397 6.65704L15.7042 6.78151C16.0962 6.94651 16.3975 7.10861 16.6081 7.27071C16.8187 7.43282 16.9679 7.61518 17.0557 7.82071C17.1434 8.02623 17.1873 8.28386 17.1873 8.59649C17.1873 9.05096 17.0528 9.42438 16.7807 9.71674Z" fill="#290E41"/>
</svg>
