<svg width="41" height="55" viewBox="0 0 41 55" fill="none" xmlns="http://www.w3.org/2000/svg">
<g clip-path="url(#clip0_1537_6176)">
<path fill-rule="evenodd" clip-rule="evenodd" d="M8.84235 0.65715L2.135 14.746C2.10947 14.7984 2.10139 14.8575 2.11192 14.9149C2.12245 14.9722 2.15104 15.0247 2.19352 15.0646L20.3085 32.4231C20.3599 32.4724 20.4285 32.5 20.4998 32.5C20.571 32.5 20.6396 32.4724 20.691 32.4231L38.806 15.0657C38.8485 15.0257 38.8771 14.9733 38.8876 14.916C38.8981 14.8586 38.89 14.7994 38.8645 14.747L32.1572 0.658234C32.1355 0.610918 32.1007 0.570835 32.0569 0.542776C32.0131 0.514717 31.9621 0.499869 31.9101 0.500006H9.09161C9.03933 0.499355 8.98798 0.513846 8.94375 0.541729C8.89952 0.569613 8.86431 0.609698 8.84235 0.65715Z" fill="#50AF95"/>
<path fill-rule="evenodd" clip-rule="evenodd" d="M22.827 16.1928C22.697 16.2025 22.0251 16.2426 20.5262 16.2426C19.3341 16.2426 18.4877 16.2068 18.1907 16.1928C13.5837 15.9901 10.1449 15.1881 10.1449 14.2279C10.1449 13.2677 13.5837 12.4668 18.1907 12.2609V15.394C18.492 15.4157 19.3547 15.4666 20.5468 15.4666C21.9774 15.4666 22.6937 15.407 22.8227 15.3951V12.2631C27.42 12.4679 30.8511 13.2699 30.8511 14.2279C30.8511 15.186 27.4211 15.9879 22.8227 16.1917L22.827 16.1928ZM22.827 11.939V9.13535H29.2429V4.85994H11.7749V9.13535H18.1896V11.9379C12.9757 12.1774 9.05469 13.2103 9.05469 14.4479C9.05469 15.6856 12.9757 16.7173 18.1896 16.9579V25.9422H22.8259V16.9546C28.028 16.7151 31.9425 15.6834 31.9425 14.4468C31.9425 13.2103 28.0312 12.1785 22.8259 11.9379L22.827 11.939Z" fill="#F9F9F9"/>
</g>
<path d="M5.616 49.74C4.736 49.74 3.95733 49.5587 3.28 49.196C2.608 48.8333 2.08 48.3213 1.696 47.66C1.312 46.9987 1.12 46.2253 1.12 45.34V37.988L2.304 37.98V45.188C2.304 45.7853 2.40533 46.3027 2.608 46.74C2.81067 47.172 3.07467 47.5293 3.4 47.812C3.73067 48.0893 4.09067 48.2947 4.48 48.428C4.86933 48.5613 5.248 48.628 5.616 48.628C5.98933 48.628 6.37067 48.5613 6.76 48.428C7.14933 48.2947 7.50667 48.0893 7.832 47.812C8.15733 47.5293 8.42133 47.172 8.624 46.74C8.82667 46.3027 8.928 45.7853 8.928 45.188V37.98H10.112V45.34C10.112 46.2253 9.92 46.9987 9.536 47.66C9.152 48.316 8.62133 48.828 7.944 49.196C7.272 49.5587 6.496 49.74 5.616 49.74ZM15.87 49.74C15.0647 49.74 14.3393 49.6067 13.694 49.34C13.054 49.068 12.5233 48.684 12.102 48.188C11.686 47.692 11.414 47.1027 11.286 46.42L12.486 46.22C12.678 46.9667 13.0833 47.5533 13.702 47.98C14.3207 48.4013 15.0593 48.612 15.918 48.612C16.4833 48.612 16.99 48.524 17.438 48.348C17.886 48.1667 18.238 47.9107 18.494 47.58C18.75 47.2493 18.878 46.8573 18.878 46.404C18.878 46.1053 18.8247 45.852 18.718 45.644C18.6113 45.4307 18.47 45.2547 18.294 45.116C18.118 44.9773 17.926 44.8627 17.718 44.772C17.51 44.676 17.3073 44.5987 17.11 44.54L14.19 43.668C13.838 43.5667 13.5127 43.4387 13.214 43.284C12.9153 43.124 12.654 42.9347 12.43 42.716C12.2113 42.492 12.0407 42.2307 11.918 41.932C11.7953 41.6333 11.734 41.292 11.734 40.908C11.734 40.2573 11.9047 39.6947 12.246 39.22C12.5873 38.7453 13.054 38.38 13.646 38.124C14.238 37.868 14.9127 37.7427 15.67 37.748C16.438 37.748 17.1233 37.884 17.726 38.156C18.334 38.428 18.8353 38.8173 19.23 39.324C19.6247 39.8253 19.886 40.42 20.014 41.108L18.782 41.332C18.702 40.8307 18.518 40.396 18.23 40.028C17.942 39.66 17.574 39.3773 17.126 39.18C16.6833 38.9773 16.1953 38.8733 15.662 38.868C15.1447 38.868 14.6833 38.956 14.278 39.132C13.878 39.3027 13.5607 39.5373 13.326 39.836C13.0913 40.1347 12.974 40.476 12.974 40.86C12.974 41.2493 13.0807 41.5613 13.294 41.796C13.5127 42.0307 13.7793 42.2147 14.094 42.348C14.414 42.4813 14.7233 42.5907 15.022 42.676L17.278 43.34C17.5127 43.404 17.7873 43.4973 18.102 43.62C18.422 43.7373 18.7313 43.908 19.03 44.132C19.334 44.3507 19.5847 44.6387 19.782 44.996C19.9793 45.3533 20.078 45.8067 20.078 46.356C20.078 46.8893 19.9713 47.3667 19.758 47.788C19.55 48.2093 19.254 48.564 18.87 48.852C18.4913 49.14 18.046 49.3587 17.534 49.508C17.0273 49.6627 16.4727 49.74 15.87 49.74ZM21.7294 49.5V37.98H25.2254C25.348 37.98 25.556 37.9827 25.8494 37.988C26.148 37.9933 26.4334 38.0147 26.7054 38.052C27.58 38.1747 28.3107 38.5 28.8974 39.028C29.484 39.556 29.924 40.228 30.2174 41.044C30.5107 41.86 30.6574 42.7587 30.6574 43.74C30.6574 44.7213 30.5107 45.62 30.2174 46.436C29.924 47.252 29.484 47.924 28.8974 48.452C28.3107 48.98 27.58 49.3053 26.7054 49.428C26.4387 49.46 26.1534 49.4813 25.8494 49.492C25.5454 49.4973 25.3374 49.5 25.2254 49.5H21.7294ZM22.9454 48.372H25.2254C25.444 48.372 25.6787 48.3667 25.9294 48.356C26.1854 48.34 26.404 48.3133 26.5854 48.276C27.2574 48.1587 27.7987 47.8867 28.2094 47.46C28.6254 47.0333 28.9294 46.5 29.1214 45.86C29.3134 45.2147 29.4094 44.508 29.4094 43.74C29.4094 42.9667 29.3134 42.2573 29.1214 41.612C28.9294 40.9667 28.6254 40.4333 28.2094 40.012C27.7934 39.5907 27.252 39.3213 26.5854 39.204C26.404 39.1667 26.1827 39.1427 25.9214 39.132C25.6654 39.116 25.4334 39.108 25.2254 39.108H22.9454V48.372ZM35.2309 49.5V39.108H31.2069V37.98H40.4309V39.108H36.4069V49.5H35.2309Z" fill="#50AF95"/>
<defs>
<clipPath id="clip0_1537_6176">
<rect width="36.7859" height="32" fill="white" transform="translate(2.10693 0.5)"/>
</clipPath>
</defs>
</svg>
