<svg
  width="45"
  height="44"
  viewBox="0 0 45 44"
  fill="none"
  xmlns="http://www.w3.org/2000/svg"
>
  <rect
    x="0.830078"
    width="44"
    height="44"
    rx="22"
    fill="#1a54da"
  />
  <path
    d="M23.5801 37L23.2051 32.5H22.8301C19.2801 32.5 16.2676 31.2625 13.7926 28.7875C11.3176 26.3125 10.0801 23.3 10.0801 19.75C10.0801 16.2 11.3176 13.1875 13.7926 10.7125C16.2676 8.2375 19.2801 7 22.8301 7C24.6051 7 26.2613 7.33125 27.7988 7.99375C29.3363 8.65625 30.6863 9.56875 31.8488 10.7312C33.0113 11.8938 33.9238 13.2438 34.5863 14.7812C35.2488 16.3188 35.5801 17.975 35.5801 19.75C35.5801 21.625 35.2738 23.425 34.6613 25.15C34.0488 26.875 33.2113 28.475 32.1488 29.95C31.0863 31.425 29.8238 32.7625 28.3613 33.9625C26.8988 35.1625 25.3051 36.175 23.5801 37ZM22.7926 27.9625C23.2176 27.9625 23.5801 27.8125 23.8801 27.5125C24.1801 27.2125 24.3301 26.85 24.3301 26.425C24.3301 26 24.1801 25.6375 23.8801 25.3375C23.5801 25.0375 23.2176 24.8875 22.7926 24.8875C22.3676 24.8875 22.0051 25.0375 21.7051 25.3375C21.4051 25.6375 21.2551 26 21.2551 26.425C21.2551 26.85 21.4051 27.2125 21.7051 27.5125C22.0051 27.8125 22.3676 27.9625 22.7926 27.9625ZM21.7051 23.2H23.9551C23.9551 22.45 24.0301 21.925 24.1801 21.625C24.3301 21.325 24.8051 20.775 25.6051 19.975C26.0551 19.525 26.4301 19.0375 26.7301 18.5125C27.0301 17.9875 27.1801 17.425 27.1801 16.825C27.1801 15.55 26.7488 14.5938 25.8863 13.9563C25.0238 13.3188 24.0051 13 22.8301 13C21.7301 13 20.8051 13.3063 20.0551 13.9188C19.3051 14.5313 18.7801 15.275 18.4801 16.15L20.5801 16.975C20.7051 16.55 20.9426 16.1313 21.2926 15.7188C21.6426 15.3062 22.1551 15.1 22.8301 15.1C23.5051 15.1 24.0113 15.2875 24.3488 15.6625C24.6863 16.0375 24.8551 16.45 24.8551 16.9C24.8551 17.325 24.7301 17.7063 24.4801 18.0438C24.2301 18.3813 23.9301 18.725 23.5801 19.075C22.7051 19.825 22.1738 20.4187 21.9863 20.8563C21.7988 21.2938 21.7051 22.075 21.7051 23.2Z"
    fill="#F9F9F9"
  />
</svg>
