<svg width="17" height="23" viewBox="0 0 17 23" fill="none" xmlns="http://www.w3.org/2000/svg">
<path d="M8.32959 17.5C12.1956 17.5 15.3296 14.366 15.3296 10.5C15.3296 6.63401 12.1956 3.5 8.32959 3.5C4.4636 3.5 1.32959 6.63401 1.32959 10.5C1.32959 14.366 4.4636 17.5 8.32959 17.5Z" stroke="#290E41" stroke-width="2" stroke-linecap="round" stroke-linejoin="round"/>
<path d="M8.32959 7.5V10.5L9.82959 12" stroke="#290E41" stroke-width="2" stroke-linecap="round" stroke-linejoin="round"/>
<path d="M12.8396 15.85L12.4896 19.68C12.4445 20.1786 12.2141 20.6423 11.8438 20.9792C11.4735 21.3162 10.9902 21.502 10.4896 21.5H6.15957C5.6589 21.502 5.17568 21.3162 4.80537 20.9792C4.43507 20.6423 4.20463 20.1786 4.15957 19.68L3.80957 15.85M3.81957 5.15L4.16957 1.32C4.21448 0.823078 4.4435 0.360886 4.81169 0.0241538C5.17987 -0.312578 5.66062 -0.499529 6.15957 -0.499999H10.5096C11.0102 -0.50203 11.4935 -0.316201 11.8638 0.0207742C12.2341 0.357749 12.4645 0.821357 12.5096 1.32L12.8596 5.15" stroke="#290E41" stroke-width="2" stroke-linecap="round" stroke-linejoin="round"/>
</svg>
