<svg
    width="13"
    height="17"
    viewBox="0 0 13 17"
    fill="none"
    xmlns="http://www.w3.org/2000/svg"
>
    <path
        d="M6.6002 0.5L0.200195 2.9V8.5C0.200195 13.3 6.6002 16.5 6.6002 16.5C6.6002 16.5 13.0002 13.3 13.0002 8.5V2.9L6.6002 0.5ZM10.0402 7.38L6.0402 11.38C5.8002 11.62 5.5602 11.7 5.2402 11.7C4.9202 11.7 4.6002 11.62 4.3602 11.38L2.5202 9.54C2.0402 9.06 2.0402 8.34 2.5202 7.86C3.0002 7.38 3.7202 7.38 4.2002 7.86L5.1602 8.82L8.2802 5.7C8.7602 5.22 9.4802 5.22 9.9602 5.7C10.5202 6.1 10.5202 6.9 10.0402 7.38Z"
        fill="white"
    />
</svg>
