<svg width="106" height="130" viewBox="0 0 106 130" fill="none" xmlns="http://www.w3.org/2000/svg">
<path d="M53.0002 0L0.829102 19.5V65C0.829102 104 53.0002 130 53.0002 130C53.0002 130 105.171 104 105.171 65V19.5L53.0002 0ZM81.0421 55.9L48.4352 88.4C46.4788 90.35 44.5224 91 41.9138 91C39.3053 91 36.6967 90.35 34.7403 88.4L19.7411 73.45C15.8283 69.55 15.8283 63.7 19.7411 59.8C23.6539 55.9 29.5232 55.9 33.436 59.8L41.2617 67.6L66.6951 42.25C70.6079 38.35 76.4771 38.35 80.39 42.25C84.9549 45.5 84.9549 52 81.0421 55.9Z" fill="black"/>
</svg>
