<svg width="58" height="41" viewBox="0 0 58 41" fill="none" xmlns="http://www.w3.org/2000/svg">
<path d="M56.6818 6.32727C56.4182 5.00909 55.6273 3.95455 54.8364 2.9C54.0455 1.84545 52.7273 1.31818 51.6727 1.05455C47.1909 0 29 0 29 0C29 0 10.8091 0 6.32727 1.31818C5.00909 1.58182 3.95455 2.10909 3.16364 3.16364C2.10909 4.21818 1.58182 5.27273 1.31818 6.59091C0.263636 11.0727 0 15.8182 0 20.5636C0 25.3091 0.263636 30.0545 1.31818 34.5364C1.58182 35.8545 2.37273 36.9091 3.16364 37.7C3.95455 38.4909 5.27273 39.2818 6.32727 39.5455C10.8091 40.8636 29 40.8636 29 40.8636C29 40.8636 47.1909 40.8636 51.6727 39.5455C52.9909 39.2818 54.0455 38.4909 54.8364 37.7C55.6273 36.6455 56.4182 35.5909 56.6818 34.2727C57.4727 29.7909 58 25.0455 58 20.5636C58 15.8182 57.7364 11.0727 56.6818 6.32727ZM23.2 29V11.8636L38.4909 20.5636L23.2 29Z" fill="#290E41"/>
</svg>
