<svg
  width="47"
  height="40"
  viewBox="0 0 47 40"
  fill="none"
  xmlns="http://www.w3.org/2000/svg"
>
  <path
    d="M34.4442 28.17L45.1559 21.9848C45.7238 21.6562 46.0747 21.0468 46.0747 20.3929V8.02232C46.0747 7.36838 45.7238 6.75911 45.1559 6.43053L34.4442 0.245223C33.8763 -0.0833351 33.1714 -0.0801431 32.6067 0.245223L21.8948 6.43053C21.3271 6.75911 20.9762 7.36838 20.9762 8.02232V30.1286L13.4638 34.4638L5.95149 30.1286V21.4553L13.4638 17.1201L18.4179 19.9814V14.1629L14.3825 11.8311C14.1049 11.6716 13.7861 11.5855 13.4638 11.5855C13.1416 11.5855 12.8227 11.6716 12.5452 11.8311L1.83327 18.0164C1.26545 18.345 0.914551 18.9544 0.914551 19.6083V31.9789C0.914551 32.6328 1.26545 33.242 1.83327 33.5706L12.5452 39.756C13.1129 40.0813 13.8148 40.0813 14.3825 39.756L25.0944 33.5706C25.6623 33.242 26.013 32.6328 26.013 31.9789V9.86931L26.147 9.79274L33.5223 5.53416L41.0346 9.86931V18.5428L33.5223 22.878L28.5745 20.0229V25.8415L32.6035 28.1669C33.1714 28.4923 33.8763 28.4923 34.4409 28.1669L34.4442 28.17Z"
    fill="white"
  />
</svg>
