<svg
  width="43"
  height="40"
  viewBox="0 0 43 40"
  fill="none"
  xmlns="http://www.w3.org/2000/svg"
>
  <path
    d="M28.7969 24.0455C28.7969 20 26.3691 18.6127 21.5134 18.0328C18.045 17.5694 17.3513 16.6454 17.3513 15.0278C17.3513 13.4101 18.5084 12.3696 20.8197 12.3696C22.9007 12.3696 24.0578 13.0633 24.6349 14.7975C24.7514 15.1443 25.0983 15.3746 25.4451 15.3746H27.2958C27.7592 15.3746 28.106 15.0278 28.106 14.5644V14.4479C27.6427 11.9035 25.5616 9.93898 22.9035 9.70868V6.93398C22.9035 6.47061 22.5567 6.12377 21.9795 6.01001H20.2453C19.782 6.01001 19.4351 6.35685 19.3214 6.93398V9.59214C15.853 10.0555 13.6554 12.3668 13.6554 15.2581C13.6554 19.0733 15.9668 20.5772 20.8225 21.1543C24.0605 21.7314 25.101 22.4251 25.101 24.2758C25.101 26.1265 23.4834 27.3974 21.2858 27.3974C18.2808 27.3974 17.2403 26.1265 16.8935 24.3924C16.777 23.929 16.4301 23.6987 16.0833 23.6987H14.1188C13.6554 23.6987 13.3086 24.0455 13.3086 24.5089V24.6254C13.772 27.5167 15.6199 29.5977 19.4351 30.1748V32.9495C19.4351 33.4129 19.782 33.7597 20.3591 33.8735H22.0933C22.5567 33.8735 22.9035 33.5267 23.0173 32.9495V30.1748C26.4856 29.5949 28.7969 27.1671 28.7969 24.0455Z"
    fill="white"
  />
  <path
    d="M15.27 36.1848C6.25226 32.9467 1.62684 22.8885 4.98145 13.9872C6.71563 9.13152 10.5308 5.43285 15.27 3.69867C15.7334 3.46837 15.9637 3.12153 15.9637 2.54162V0.923973C15.9637 0.460599 15.7334 0.113762 15.27 0C15.1535 0 14.9232 0 14.8066 0.116537C3.8244 3.58491 -2.18836 15.2608 1.28001 26.2458C3.36103 32.7192 8.33328 37.6915 14.8066 39.7725C15.27 40.0028 15.7306 39.7725 15.8472 39.3091C15.9637 39.1926 15.9637 39.0788 15.9637 38.8457V37.2281C15.9637 36.8785 15.6169 36.4179 15.27 36.1848ZM27.5258 0.113762C27.0625 -0.116537 26.6019 0.113762 26.4853 0.577136C26.3688 0.693674 26.3688 0.807436 26.3688 1.04051V2.65816C26.3688 3.12153 26.7156 3.58213 27.0625 3.81521C36.0802 7.05327 40.7056 17.1115 37.351 26.0128C35.6169 30.8685 31.8016 34.5672 27.0625 36.3013C26.5991 36.5316 26.3688 36.8785 26.3688 37.4584V39.076C26.3688 39.5394 26.5991 39.8862 27.0625 40C27.179 40 27.4093 40 27.5258 39.8835C38.5081 36.4151 44.5209 24.7392 41.0525 13.7542C38.9715 7.16704 33.8827 2.19478 27.5258 0.113762Z"
    fill="white"
  />
</svg>
