<svg
  width="33"
  height="30"
  viewBox="0 0 33 30"
  fill="none"
  xmlns="http://www.w3.org/2000/svg"
>
  <path
    d="M32.6171 14.1803C32.6171 12.1342 27.0564 10.4298 19.6653 10.0353V6.77695H28.8951V0H3.6544V6.77695H12.8842V10.0515C5.62729 10.4705 0.196777 12.1586 0.196777 14.1803C0.196777 16.198 5.62322 17.8861 12.8802 18.3092V30.0041H19.6571V18.3214C27.0524 17.9268 32.6171 16.2224 32.6171 14.1803ZM16.4069 16.1939C8.47474 16.1939 2.03949 14.9654 2.03949 13.4522C2.03949 12.1708 6.65237 11.0929 12.8802 10.7919V11.5647V14.7254C14.0029 14.7864 15.1825 14.8231 16.4029 14.8231C17.5256 14.8231 18.6158 14.7946 19.6571 14.7417V10.7756C26.0232 11.0563 30.7663 12.1464 30.7663 13.4481C30.7744 14.9654 24.3392 16.1939 16.4069 16.1939Z"
    fill="white"
  />
</svg>
