<svg width="29" height="29" viewBox="0 0 29 29" fill="none" xmlns="http://www.w3.org/2000/svg">
<path d="M9.46582 3.25H5.71582C5.05278 3.25 4.41689 3.51339 3.94805 3.98223C3.47921 4.45107 3.21582 5.08696 3.21582 5.75V9.5M25.7158 9.5V5.75C25.7158 5.08696 25.4524 4.45107 24.9836 3.98223C24.5147 3.51339 23.8789 3.25 23.2158 3.25H19.4658M19.4658 25.75H23.2158C23.8789 25.75 24.5147 25.4866 24.9836 25.0178C25.4524 24.5489 25.7158 23.913 25.7158 23.25V19.5M3.21582 19.5V23.25C3.21582 23.913 3.47921 24.5489 3.94805 25.0178C4.41689 25.4866 5.05278 25.75 5.71582 25.75H9.46582" stroke="#290E41" stroke-width="5" stroke-linecap="round" stroke-linejoin="round"/>
</svg>
