<svg width="37" height="31" viewBox="0 0 37 31" fill="none" xmlns="http://www.w3.org/2000/svg">
<path d="M36.236 12.0656H0.423828V14.5313H36.236V12.0656Z" fill="#290E41"/>
<path d="M7.11648 0.5C4.59202 0.5 2.47852 2.55479 2.47852 5.13797V10.4804H4.65073V5.13797H11.7544C11.7544 2.55479 9.69965 0.5 7.11648 0.5Z" fill="#290E41"/>
<path d="M34.3572 22.2221V16.0577H28.1928H8.6429H2.47852V22.2221C2.47852 24.1595 3.35914 25.862 4.70944 26.9775L3.94623 28.093C3.47656 28.7975 3.65268 29.7368 4.29848 30.2065C5.00298 30.6761 5.94231 30.5 6.41198 29.8542L7.46873 28.3278C7.82098 28.3865 8.17323 28.4452 8.58419 28.4452H28.0754C28.4276 28.4452 28.7212 28.3865 29.0147 28.3865L30.0715 29.9129C30.5411 30.6174 31.4805 30.7936 32.185 30.2652C32.8895 29.7955 33.0656 28.7975 32.5372 28.1517L31.8327 27.1536C33.4179 25.9208 34.3572 24.2182 34.3572 22.2221Z" fill="#290E41"/>
</svg>
