<svg width="44" height="31" viewBox="0 0 44 31" fill="none" xmlns="http://www.w3.org/2000/svg">
<path d="M40.4432 12.6154V5.92308C40.4432 2.80769 38.1355 0.5 35.0201 0.5H8.36629C5.07783 0.5 2.36629 2.92308 2.36629 5.92308V13.1923C0.981671 14.1731 0.0585938 15.7308 0.0585938 17.4615V29.3462C0.0585938 29.9808 0.577825 30.5 1.21244 30.5C1.84706 30.5 2.36629 29.9808 2.36629 29.3462V26.4615H41.0201V29.3462C41.0201 29.9808 41.5394 30.5 42.174 30.5C42.8086 30.5 43.3278 29.9808 43.3278 29.3462V17.4615C43.3278 15.2692 42.174 13.4808 40.4432 12.6154ZM4.67398 5.92308C4.67398 4.01923 6.57783 2.80769 8.36629 2.80769H34.9624C36.924 2.80769 38.1355 4.01923 38.1355 5.92308V12.0385H37.9048H37.5586V10.1923C37.5586 8.57692 36.3471 7.42308 34.5586 7.42308H23.5971C22.8471 7.42308 22.0971 7.59615 21.5201 8C21.0009 7.65385 20.3663 7.42308 19.6163 7.42308H8.59706C6.98167 7.42308 5.2509 8.40385 5.2509 10.1923V12.0385H4.67398V5.92308ZM20.2509 12.0385H7.55859V10.1923C7.55859 10.0192 8.02013 9.73077 8.59706 9.73077H19.6163C20.3086 9.73077 20.3086 10.0192 20.3086 10.1923V12.0385H20.2509ZM22.5586 10.1923C22.5586 10.0192 23.0201 9.73077 23.5971 9.73077H34.6163C35.3086 9.73077 35.3086 10.0192 35.3086 10.1923V12.0385H22.5586V10.1923Z" fill="#290E41"/>
</svg>
