<svg width="31" height="31" viewBox="0 0 31 31" fill="none" xmlns="http://www.w3.org/2000/svg">
<path d="M3.39746 30.5C2.57246 30.5 1.86621 30.2063 1.27871 29.6188C0.691211 29.0312 0.397461 28.325 0.397461 27.5V3.5C0.397461 2.675 0.691211 1.96875 1.27871 1.38125C1.86621 0.79375 2.57246 0.5 3.39746 0.5H27.3975C28.2225 0.5 28.9287 0.79375 29.5162 1.38125C30.1037 1.96875 30.3975 2.675 30.3975 3.5V27.5C30.3975 28.325 30.1037 29.0312 29.5162 29.6188C28.9287 30.2063 28.2225 30.5 27.3975 30.5H3.39746ZM3.39746 27.5H27.3975V3.5H3.39746V27.5ZM10.8975 18.5C10.4725 18.5 10.1162 18.3563 9.82871 18.0688C9.54121 17.7812 9.39746 17.425 9.39746 17C9.39746 16.575 9.54121 16.2188 9.82871 15.9313C10.1162 15.6438 10.4725 15.5 10.8975 15.5C11.3225 15.5 11.6787 15.6438 11.9662 15.9313C12.2537 16.2188 12.3975 16.575 12.3975 17C12.3975 17.425 12.2537 17.7812 11.9662 18.0688C11.6787 18.3563 11.3225 18.5 10.8975 18.5ZM19.8975 18.5C19.4725 18.5 19.1162 18.3563 18.8287 18.0688C18.5412 17.7812 18.3975 17.425 18.3975 17C18.3975 16.575 18.5412 16.2188 18.8287 15.9313C19.1162 15.6438 19.4725 15.5 19.8975 15.5C20.3225 15.5 20.6787 15.6438 20.9662 15.9313C21.2537 16.2188 21.3975 16.575 21.3975 17C21.3975 17.425 21.2537 17.7812 20.9662 18.0688C20.6787 18.3563 20.3225 18.5 19.8975 18.5ZM4.89746 14.15V24.05C4.89746 24.4 5.00996 24.6875 5.23496 24.9125C5.45996 25.1375 5.74746 25.25 6.09746 25.25H6.69746C7.04746 25.25 7.33496 25.1375 7.55996 24.9125C7.78496 24.6875 7.89746 24.4 7.89746 24.05V22.25H22.8975V24.05C22.8975 24.4 23.01 24.6875 23.235 24.9125C23.46 25.1375 23.7475 25.25 24.0975 25.25H24.6975C25.0475 25.25 25.335 25.1375 25.56 24.9125C25.785 24.6875 25.8975 24.4 25.8975 24.05V14.15L23.4225 6.95C23.2975 6.6 23.0912 6.3125 22.8037 6.0875C22.5162 5.8625 22.1975 5.75 21.8475 5.75H8.94746C8.59746 5.75 8.27871 5.8625 7.99121 6.0875C7.70371 6.3125 7.49746 6.6 7.37246 6.95L4.89746 14.15ZM8.87246 11.75L9.92246 8.75H20.8725L21.9225 11.75H8.87246ZM7.89746 19.25V14.75H22.8975V19.25H7.89746Z" fill="#290E41"/>
</svg>
