<svg width="28" height="31" viewBox="0 0 28 31" fill="none" xmlns="http://www.w3.org/2000/svg">
<path d="M3.79126 30.4145C2.9686 30.4145 2.26437 30.1216 1.67854 29.5358C1.09272 28.95 0.799805 28.2457 0.799805 27.4231V6.48291C0.799805 5.66025 1.09272 4.95602 1.67854 4.37019C2.26437 3.78437 2.9686 3.49145 3.79126 3.49145H5.28698V0.5H8.27844V3.49145H20.2443V0.5H23.2357V3.49145H24.7314C25.5541 3.49145 26.2583 3.78437 26.8441 4.37019C27.43 4.95602 27.7229 5.66025 27.7229 6.48291V27.4231C27.7229 28.2457 27.43 28.95 26.8441 29.5358C26.2583 30.1216 25.5541 30.4145 24.7314 30.4145H3.79126ZM3.79126 27.4231H24.7314V12.4658H3.79126V27.4231ZM3.79126 9.47439H24.7314V6.48291H3.79126V9.47439Z" fill="#290E41"/>
<path d="M18.7071 25.8846L15.297 22.3799L16.605 21.0356L20.0151 24.5403L18.7071 25.8846ZM10.1116 25.8846L8.80365 24.5403L13.1013 20.1234L12.0425 19.0352L11.6065 19.4832L10.8123 18.6671V19.9794L10.3763 20.4275L8.49219 18.491L8.92819 18.0429H10.205L9.42649 17.2428L11.6376 14.9703C11.8453 14.7569 12.0684 14.6022 12.3072 14.5062C12.546 14.4102 12.7899 14.3622 13.039 14.3622C13.2882 14.3622 13.5322 14.4102 13.7709 14.5062C14.0096 14.6022 14.2329 14.7569 14.4405 14.9703L13.0079 16.4426L13.7865 17.2428L13.3505 17.6909L14.4093 18.7791L15.8108 17.3388C15.7693 17.2215 15.7355 17.0988 15.7096 16.9707C15.6836 16.8427 15.6706 16.7147 15.6706 16.5866C15.6706 15.9572 15.8809 15.4264 16.3013 14.9943C16.7217 14.5622 17.2382 14.3462 17.8506 14.3462C18.0063 14.3462 18.1543 14.3622 18.2944 14.3942C18.4346 14.4262 18.5773 14.4742 18.7226 14.5382L17.181 16.1225L18.3022 17.2748L19.8438 15.6905C19.9165 15.8398 19.9658 15.9865 19.9917 16.1305C20.0176 16.2745 20.0306 16.4266 20.0306 16.5866C20.0306 17.2161 19.8204 17.7469 19.4 18.179C18.9796 18.6111 18.4631 18.8271 17.8506 18.8271C17.726 18.8271 17.6015 18.8165 17.477 18.7951C17.3523 18.7738 17.233 18.7365 17.1188 18.6831L10.1116 25.8846Z" fill="#290E41"/>
</svg>
